<?xml version="1.0" encoding="UTF-8" standalone="no"?>
<svg
   xmlns:dc="http://purl.org/dc/elements/1.1/"
   xmlns:cc="http://creativecommons.org/ns#"
   xmlns:rdf="http://www.w3.org/1999/02/22-rdf-syntax-ns#"
   xmlns:svg="http://www.w3.org/2000/svg"
   xmlns="http://www.w3.org/2000/svg"
   xmlns:xlink="http://www.w3.org/1999/xlink"
   xmlns:sodipodi="http://sodipodi.sourceforge.net/DTD/sodipodi-0.dtd"
   xmlns:inkscape="http://www.inkscape.org/namespaces/inkscape"
   viewBox="0 0 600.67657 662.43262"
   id="svg2"
   version="1.1"
   inkscape:version="0.48.4 r9939"
   width="100%"
   height="100%"
   sodipodi:docname="container-33446.svg">
  <metadata
     id="metadata64">
    <rdf:RDF>
      <cc:Work
         rdf:about="">
        <dc:format>image/svg+xml</dc:format>
        <dc:type
           rdf:resource="http://purl.org/dc/dcmitype/StillImage" />
        <dc:title></dc:title>
      </cc:Work>
    </rdf:RDF>
  </metadata>
  <sodipodi:namedview
     pagecolor="#ffffff"
     bordercolor="#666666"
     borderopacity="1"
     objecttolerance="10"
     gridtolerance="10"
     guidetolerance="10"
     inkscape:pageopacity="0"
     inkscape:pageshadow="2"
     inkscape:window-width="1920"
     inkscape:window-height="1044"
     id="namedview62"
     showgrid="false"
     inkscape:zoom="0.35626265"
     inkscape:cx="300.33828"
     inkscape:cy="331.21631"
     inkscape:window-x="1920"
     inkscape:window-y="0"
     inkscape:window-maximized="1"
     inkscape:current-layer="g3063" />
  <defs
     id="defs4">
    <linearGradient
       id="a">
      <stop
         stop-opacity="0"
         offset="0"
         id="stop7" />
      <stop
         stop-opacity="0"
         offset=".6"
         id="stop9" />
      <stop
         offset="1"
         id="stop11" />
    </linearGradient>
    <linearGradient
       id="c">
      <stop
         stop-opacity=".67843"
         offset="0"
         id="stop14" />
      <stop
         stop-opacity=".32941"
         offset=".57"
         id="stop16" />
      <stop
         stop-opacity="0"
         offset="1"
         id="stop18" />
    </linearGradient>
    <radialGradient
       id="l"
       cx="505.43"
       cy="339.19"
       r="17.922"
       gradientTransform="matrix(1.6725 -.31319 .38113 .99407 -274.87 356.51)"
       gradientUnits="userSpaceOnUse"
       xlink:href="#a" />
    <radialGradient
       id="k"
       cx="505.31"
       cy="340.96"
       r="17.922"
       gradientTransform="matrix(1.6725 -.31319 .38113 .99407 -274.87 336.51)"
       gradientUnits="userSpaceOnUse"
       xlink:href="#a" />
    <radialGradient
       id="j"
       cx="500.27"
       cy="332.63"
       r="17.922"
       gradientTransform="matrix(2.0281e-6 -1.4878 -2.1353 0 1411.1 1263.4)"
       gradientUnits="userSpaceOnUse"
       xlink:href="#a" />
    <radialGradient
       id="i"
       cx="504.93"
       cy="338.55"
       r="17.922"
       gradientTransform="matrix(2.1536 0 -8.2821e-7 -.99881 -386.61 864.38)"
       gradientUnits="userSpaceOnUse"
       xlink:href="#a" />
    <radialGradient
       id="h"
       cx="508.64"
       cy="331.67"
       r="17.922"
       gradientTransform="matrix(0 -.37545 .87533 0 410.51 700.62)"
       gradientUnits="userSpaceOnUse"
       xlink:href="#c" />
    <radialGradient
       id="g"
       cx="505.31"
       cy="340.96"
       r="17.922"
       gradientTransform="matrix(.82799 -.22186 .18868 .70419 217.85 381.27)"
       gradientUnits="userSpaceOnUse"
       xlink:href="#a" />
    <radialGradient
       id="f"
       cx="507.58"
       cy="332.63"
       r="17.922"
       gradientTransform="matrix(1.018 -.27277 .18868 .70419 121.41 407.11)"
       gradientUnits="userSpaceOnUse"
       xlink:href="#a" />
    <radialGradient
       id="e"
       cx="504.93"
       cy="332.63"
       r="17.922"
       gradientTransform="matrix(-6.3695e-7 -1.0539 .6706 0 477.82 1037.8)"
       gradientUnits="userSpaceOnUse"
       xlink:href="#a" />
    <radialGradient
       id="b"
       cx="508.93"
       cy="327.4"
       r="17.922"
       gradientTransform="matrix(.38108 -.78236 .86372 .42071 220.59 762.31)"
       gradientUnits="userSpaceOnUse"
       xlink:href="#a" />
    <radialGradient
       id="d"
       cx="508.64"
       cy="331.67"
       r="17.922"
       gradientTransform="matrix(0 -.26597 .43335 0 557.16 639.21)"
       gradientUnits="userSpaceOnUse"
       xlink:href="#c" />
  </defs>
  <g
     transform="matrix(24.883 0 0 24.883 -16189 -12806)"
     id="g30">
    <path
       d="m662.70885,514.65964c-1.58752-1e-005-3.04887.30511-4.23111.87052-1.06834.51093-2.00881,1.2905-2.30789,2.46983-.82658.20697-1.61037.46105-2.28763.74905-.74665.31753-1.40358.68617-1.94348,1.1337-.17933.14865-.35543.29326-.52636.48587-.44694.50361-.75507,1.19989-.78954,1.92323h-.02024c-.00852.10548-.00143.09665 0,.12147s0,.08088 0,.06073v.74905 .32392 11.45843 1.15393c-1e-005,.52115.13864,1.03879.38465,1.45761 .15756.26974.34739.43492.46562.56685 .45472.50938 1.02417.93625 1.72078,1.29565 .19293.10017.43021.22579.70857.34416 .01365.00578.00698-.00533.02024,0 .24506.10369.4931.19357.74905.28342h.02025l.20244.08098c.73137.24463 1.53362.45662 2.42935.62758 .25839.04944.38157.06118.38465.06074 .20383.03883.39754.07004.60733.10122h.02025c.34584.05115.68227.0854 1.01223.12147 .14999.01637.21947.02043.22269.02024 .27132.02835.5441.05895.85027.08098 .20176.01463.20773.01339.02025,0 .34798.02481.71575.04725 1.0932.06074 .37479.01356.74996.01998 1.13369.02024 2.35532-2e-005 4.52705-.26185 6.37705-.70856 .28635-.06933.54761-.13245.78954-.20245 1.29031-.37143 2.4012-.8471 3.27961-1.47785s1.63984-1.54149 1.63981-2.73302v-1.15393-11.78235-.74905c1e-005,.01999-.00095-.04419 0-.06073s.00853-.01608 0-.12147h-.02024c-.05818-1.3505-1.03422-2.31599-2.14592-2.97595-.90766-.53882-2.05318-.95242-3.32011-1.27541-.28745-1.20043-1.22833-1.99407-2.30788-2.51032-1.18232-.5654-2.64359-.87052-4.23112-.87052zm.3644.68832c3.00432,0 5.44577,1.23087 5.44579,2.73301 .00065.01441 0,.02629 0,.04049v.42514c.00132.00026-.00131.01998 0,.02024 .21798.04416.43954.07238.64783.12147 2.34887.55361 4.06581,1.4288 4.65625,2.42935 .14761.25014.22269.50423.22269.76929 .00219.027 1e-005,.05445 0,.08098v.76929 12.10626 1.17418c0,.79859-.7072,1.53217-1.90299,2.14592-.39662.20408-.83722.39335-1.33614.56686-.24886.08674-.49765.16478-.7693.24293-.20861.06038-.42676.10697-.64782.16195l-.22269.06074c-1.75357.41219-3.86613.66663-6.13411.66807-.38628,0-.75747-.00668-1.13369-.02024-.36264-.01285-.72156-.0359-1.07297-.06074h-.02024c-.35097-.02505-.69451-.06481-1.03247-.10122h-.02025c-.33746-.0366-.66927-.07414-.99198-.12147h-.02024c-.32888-.0485-.63985-.10293-.9515-.16196h-.02024c-.31152-.05929-.59834-.13324-.89076-.20244-.5781-.13681-1.12682-.29388-1.61957-.46562h-.02025c-.24261-.08458-.46909-.17103-.68831-.26319h-.02025c-.89692-.37885-1.5754-.83523-2.00421-1.3159-.11102-.12355-.20814-.23586-.28343-.36439-.14663-.24986-.22268-.50424-.22268-.7693v-1.17418-11.78235-.32391-.76929c0-.02654-.00219-.05398 0-.08098 0-.3976.16454-.77261.48587-1.13369 .1071-.12037.24552-.24941.38465-.36441 .41735-.345.96757-.66641 1.6398-.95149s1.47111-.54144 2.34838-.74905c.24646-.05833.48891-.11064.74905-.16196v-.40489c0-.0142-.00065-.02608 0-.04049 0-1.50215 2.44149-2.73302 5.44578-2.73301z"
       id="path32" />
    <g
       transform="matrix(.64783 0 0 .64783 209.02 191.35)"
       id="g34">
      <path
         d="m700.84 524.28c-9.3675 0-17.006 2.6692-17.006 5.9425v1.8125c-6e-5 3.2733 7.6387 5.9218 17.006 5.9218s16.977-2.6485 16.977-5.9218v-1.8125c0-3.2733-7.609-5.9425-16.977-5.9425z"
         id="path36"
         fill="url(#l)" />
      <path
         d="m700.8 504.28c-9.3675 3e-5 -16.969 2.6642-16.969 5.9375v21.812c0 3.2733 7.6012 5.9375 16.969 5.9375s17.031-2.6642 17.031-5.9375v-21.812c0-3.2733-7.6638-5.9375-17.031-5.9375z"
         id="path38"
         fill-opacity=".5"
         fill="#f5f5dc" />
      <path
         d="m700.84 504.28c-9.3675 0-17.006 2.6692-17.006 5.9425v1.8125c-6e-5 3.2733 7.6387 5.9218 17.006 5.9218s16.977-2.6485 16.977-5.9218v-1.8125c0-3.2733-7.609-5.9425-16.977-5.9425z"
         id="path40"
         fill="url(#k)" />
      <path
         d="m700.8 504.28c-9.3675 3e-5 -16.969 2.6642-16.969 5.9375v21.812c0 3.2733 7.6012 5.9375 16.969 5.9375s17.031-2.6642 17.031-5.9375v-21.812c0-3.2733-7.6638-5.9375-17.031-5.9375z"
         id="path42"
         fill="url(#j)" />
      <path
         d="m700.81 524.28c9.3675 0 17.006 2.6692 17.006 5.9425v1.8125c5e-5 3.2733-7.6387 5.9218-17.006 5.9218s-16.977-2.6485-16.977-5.9218v-1.8125c0-3.2733 7.609-5.9425 16.977-5.9425z"
         id="path44"
         fill="url(#i)" />
      <path
         d="m684.01 509.43c-0.04944 0.14472-0.08837 0.28869-0.11853 0.4353s-0.05921 0.31683-0.05921 0.47316v1.1927c-6e-5 2.992 7.6386 5.4129 17.006 5.4129s16.977-2.4209 16.977-5.4129v-1.1927c0-0.1563-0.0278-0.32035-0.05922-0.47316s-0.0693-0.29058-0.11855-0.4353c-1.1524 3.277-8.2336 5.7914-16.799 5.7914s-15.672-2.5143-16.828-5.7914z"
         id="path46"
         fill="url(#h)" />
      <path
         d="m700.89 500.12c-4.6375 0-8.4192 1.8908-8.4192 4.2096v3.5495c-1e-5 2.3188 3.7817 4.1949 8.4192 4.1949s8.4045-1.8762 8.4045-4.1949v-3.5495c-1e-5 -2.3188-3.767-4.2096-8.4045-4.2096z"
         id="path48"
         fill="#ffd700" />
      <path
         d="m700.89 500.12c-4.6375 0-8.4192 1.8908-8.4192 4.2096v3.5495c-1e-5 2.3188 3.7817 4.1949 8.4192 4.1949s8.4045-1.8762 8.4045-4.1949v-3.5495c-1e-5 -2.3188-3.767-4.2096-8.4045-4.2096z"
         id="path50"
         fill="url(#g)" />
      <path
         d="m700.89 500.12c-4.6375 0-8.4192 1.8908-8.4192 4.2096v3.5495c-1e-5 2.3188 3.7817 4.1949 8.4192 4.1949s8.4045-1.8762 8.4045-4.1949v-3.5495c-1e-5 -2.3188-3.767-4.2096-8.4045-4.2096z"
         id="path52"
         fill="url(#f)" />
      <path
         d="m700.89 500.12c-4.6375 0-8.4192 1.8908-8.4192 4.2096v3.5495c-1e-5 2.3188 3.7817 4.1949 8.4192 4.1949s8.4045-1.8762 8.4045-4.1949v-3.5495c-1e-5 -2.3188-3.767-4.2096-8.4045-4.2096z"
         id="path54"
         fill="url(#e)" />
      <path
         d="m700.89 500.12c-4.6375 0-8.4192 1.8908-8.4192 4.2096v3.5495c-1e-5 2.3188 3.7817 4.1949 8.4192 4.1949s8.4045-1.8762 8.4045-4.1949v-3.5495c-1e-5 -2.3188-3.767-4.2096-8.4045-4.2096z"
         id="path56"
         fill="url(#b)" />
      <path
         d="m700.89 500.12c-4.6375 0-8.4192 1.8908-8.4192 4.2096v3.5495c-1e-5 2.3188 3.7817 4.1949 8.4192 4.1949s8.4045-1.8762 8.4045-4.1949v-3.5495c-1e-5 -2.3188-3.767-4.2096-8.4045-4.2096z"
         id="path58"
         fill="url(#b)" />
      <path
         d="m692.56153,503.77094c-.02446.10252-.04376.20451-.05867.30837-.01556.10824-.02934.22445-.02934.33518v3.11044c-1e-005,2.11951 3.78166,3.83442 8.41916,3.83442s8.40449-1.71491 8.40449-3.83442v-3.11044c0-.11073-.01376-.22694-.02934-.33518-.01494-.10386-.03428-.20585-.05866-.30837-.57053,2.32138-4.07615,4.10258-8.31649,4.10258s-7.7587-1.7811-8.33115-4.10258z"
         id="path60"
         fill="url(#d)" />
    </g>
  </g>
  <g
     id="g3063"
     transform="matrix(0.63281847,0,0,0.76690572,-174.46981,143.72657)"
     style="fill:#008000">
    <path
       id="path14"
       d="m 865.55574,522.08737 42.426,-42.426 -109.69,-109.69 -39.68601,47.465 106.95001,104.65 z"
       inkscape:connector-curvature="0"
       style="fill-rule:evenodd;stroke:#000000;stroke-width:1;fill:#008000" />
    <path
       id="path10"
       d="m 756.59574,98.797365 c -0.56568,0.1606 -1.3316,0.54549 -2.125,1.437505 l -110.69001,160.97 c -2.6682,4.7703 -2.7808,6.7283 -2.8438,10.781 -10e-6,5.2699 1.4067,9.8233 4.2812,13.656 2.8745,3.8327 7.1883,5.7498 12.938,5.75 2.3955,-1.8e-4 13.979,-3.3439 14.938,-3.3438 l 15.969,-4.5625 22.281,-6.4688 v 303.46 h 89.78101 v -303.46 l 23,6.4688 15.969,4.5625 c 0.95822,-1.9e-4 12.542,3.3436 14.938,3.3438 5.7492,-1.9e-4 10.063,-1.9174 12.938,-5.75 2.875,-3.8326 4.3125,-8.3864 4.3125,-13.656 -0.0629,-4.053 -0.20685,-6.011 -2.875,-10.781 l -110.66,-160.97 c -0.79337,-0.892015 -1.5906,-1.276905 -2.1562,-1.437505 z"
       inkscape:connector-curvature="0"
       style="fill:#008000" />
  </g>
</svg>
